{
  "accessors": [
    {
      "bufferView": 0,
      "componentType": 5125,
      "count": 127122,
      "type": "SCALAR"
    },
    {
      "bufferView": 1,
      "componentType": 5126,
      "count": 23681,
      "max": [
        0.0892499983310699,
        0.00493600033223629,
        -3.0025839805603e-06
      ],
      "min": [
        -0.0896420031785965,
        -0.00305000017397106,
        -0.247893005609512
      ],
      "type": "VEC3"
    },
    {
      "bufferView": 2,
      "componentType": 5126,
      "count": 23681,
      "type": "VEC3"
    },
    {
      "bufferView": 3,
      "componentType": 5126,
      "count": 23681,
      "type": "VEC4"
    },
    {
      "bufferView": 4,
      "componentType": 5126,
      "count": 23681,
      "type": "VEC2"
    },
    {
      "bufferView": 5,
      "componentType": 5125,
      "count": 5220,
      "type": "SCALAR"
    },
    {
      "bufferView": 6,
      "componentType": 5126,
      "count": 930,
      "max": [
        -0.0714979991316795,
        0.00493399985134602,
        -0.229668006300926
      ],
      "min": [
        -0.0815280005335808,
        0.00480999983847141,
        -0.239683002233505
      ],
      "type": "VEC3"
    },
    {
      "bufferView": 7,
      "componentType": 5126,
      "count": 930,
      "type": "VEC3"
    },
    {
      "bufferView": 8,
      "componentType": 5126,
      "count": 930,
      "type": "VEC4"
    },
    {
      "bufferView": 9,
      "componentType": 5126,
      "count": 930,
      "type": "VEC2"
    }
  ],
  "asset": {
    "generator": "Adobe Substance 3D Painter 9.0.0",
    "version": "2.0"
  },
  "bufferViews": [
    {
      "buffer": 0,
      "byteLength": 508488,
      "target": 34963
    },
    {
      "buffer": 0,
      "byteLength": 284172,
      "byteOffset": 508488,
      "target": 34962
    },
    {
      "buffer": 0,
      "byteLength": 284172,
      "byteOffset": 792660,
      "target": 34962
    },
    {
      "buffer": 0,
      "byteLength": 378896,
      "byteOffset": 1076832,
      "target": 34962
    },
    {
      "buffer": 0,
      "byteLength": 189448,
      "byteOffset": 1455728,
      "target": 34962
    },
    {
      "buffer": 0,
      "byteLength": 20880,
      "byteOffset": 1645176,
      "target": 34963
    },
    {
      "buffer": 0,
      "byteLength": 11160,
      "byteOffset": 1666056,
      "target": 34962
    },
    {
      "buffer": 0,
      "byteLength": 11160,
      "byteOffset": 1677216,
      "target": 34962
    },
    {
      "buffer": 0,
      "byteLength": 14880,
      "byteOffset": 1688376,
      "target": 34962
    },
    {
      "buffer": 0,
      "byteLength": 7440,
      "byteOffset": 1703256,
      "target": 34962
    }
  ],
  "buffers": [
    {
      "byteLength": 1710696,
      "uri": "gltf.bin"
    }
  ],
  "images": [
    {
      "uri": "glass_baseColor.png"
    },
    {
      "uri": "glass_occlusionRoughnessMetallic.png"
    },
    {
      "uri": "Material.001_baseColor.png"
    },
    {
      "uri": "Material.001_occlusionRoughnessMetallic.png"
    },
    {
      "uri": "Material.001_normal.png"
    }
  ],
  "materials": [
    {
      "alphaMode": "BLEND",
      "name": "glass",
      "occlusionTexture": {
        "index": 1
      },
      "pbrMetallicRoughness": {
        "baseColorTexture": {
          "index": 0
        },
        "metallicRoughnessTexture": {
          "index": 1
        }
      }
    },
    {
      "alphaMode": "OPAQUE",
      "name": "Material.001",
      "normalTexture": {
        "index": 4
      },
      "occlusionTexture": {
        "index": 3
      },
      "pbrMetallicRoughness": {
        "baseColorTexture": {
          "index": 2
        },
        "metallicRoughnessTexture": {
          "index": 3
        }
      }
    }
  ],
  "meshes": [
    {
      "name": "Cube",
      "primitives": [
        {
          "attributes": {
            "NORMAL": 2,
            "POSITION": 1,
            "TANGENT": 3,
            "TEXCOORD_0": 4
          },
          "indices": 0,
          "material": 1,
          "mode": 4
        }
      ]
    },
    {
      "name": "Cube.001",
      "primitives": [
        {
          "attributes": {
            "NORMAL": 7,
            "POSITION": 6,
            "TANGENT": 8,
            "TEXCOORD_0": 9
          },
          "indices": 5,
          "material": 0,
          "mode": 4
        }
      ]
    }
  ],
  "nodes": [
    {
      "children": [
        1,
        3,
        5
      ],
      "name": "RootNode"
    },
    {
      "children": [
        2
      ],
      "name": "Cube",
      "rotation": [
        0.707106828689575,
        0.0,
        0.0,
        0.707106709480286
      ]
    },
    {
      "mesh": 0,
      "name": "Cube"
    },
    {
      "children": [
        4
      ],
      "name": "Cube.001",
      "rotation": [
        0.707106828689575,
        0.0,
        0.0,
        0.707106709480286
      ]
    },
    {
      "mesh": 1,
      "name": "Cube.001"
    },
    {
      "name": "RootNode",
      "translation": [
        0.201266288757324,
        -0.0311063937842846,
        0.0838016122579575
      ]
    }
  ],
  "samplers": [
    {
      "magFilter": 9729,
      "minFilter": 9985,
      "wrapS": 10497,
      "wrapT": 10497
    }
  ],
  "scene": 0,
  "scenes": [
    {
      "name": "Scene",
      "nodes": [
        0
      ]
    }
  ],
  "textures": [
    {
      "sampler": 0,
      "source": 0
    },
    {
      "sampler": 0,
      "source": 1
    },
    {
      "sampler": 0,
      "source": 2
    },
    {
      "sampler": 0,
      "source": 3
    },
    {
      "sampler": 0,
      "source": 4
    }
  ]
}